<?xml version="1.0" standalone="no"?>
<!DOCTYPE svg PUBLIC "-//W3C//DTD SVG 20010904//EN"
 "http://www.w3.org/TR/2001/REC-SVG-20010904/DTD/svg10.dtd">
<svg version="1.0" xmlns="http://www.w3.org/2000/svg"
 width="500.000000pt" height="500.000000pt" viewBox="0 0 500.000000 500.000000"
 preserveAspectRatio="xMidYMid meet">

<g transform="translate(0.000000,500.000000) scale(0.100000,-0.100000)"
fill="#000000" stroke="none">
<path d="M1325 3302 c-257 -76 -420 -331 -364 -571 45 -196 247 -349 430 -328
102 12 149 62 149 159 0 50 -3 59 -30 81 -20 18 -51 29 -102 37 -89 14 -170
51 -188 86 -46 84 28 217 138 249 77 23 141 57 177 95 26 28 30 38 30 90 0 51
-4 63 -27 87 -23 23 -37 27 -90 30 -39 2 -86 -4 -123 -15z"/>
<path d="M3041 3285 c-40 -34 -69 -116 -84 -236 l-11 -99 -31 30 c-102 98
-284 51 -373 -98 l-19 -33 -13 31 c-33 80 -180 132 -290 101 -20 -6 -31 -1
-56 26 -20 21 -41 33 -57 33 -36 0 -73 -49 -88 -115 l-12 -56 -24 48 c-33 66
-90 121 -135 134 -140 37 -308 -152 -308 -348 0 -222 160 -300 327 -159 l30
26 7 -51 c10 -73 23 -100 54 -111 l28 -11 16 -163 c16 -158 24 -190 56 -226
32 -38 86 -10 112 57 7 17 15 105 19 197 4 93 11 172 16 176 6 5 30 17 54 26
71 28 151 86 195 143 l41 53 14 -52 c41 -146 214 -194 355 -97 19 13 42 39 52
59 l18 35 7 -111 c11 -181 51 -297 106 -310 34 -9 52 4 77 51 19 37 19 45 7
269 -14 252 -8 349 30 519 11 51 21 125 22 166 1 68 0 75 -26 97 -36 31 -78
31 -116 -1z m-1163 -436 c2 -16 -9 -44 -30 -75 -27 -40 -38 -49 -63 -49 -23 0
-31 5 -33 22 -4 25 21 77 51 111 29 31 71 27 75 -9z m962 0 c0 -12 -69 -43
-78 -35 -3 3 3 15 13 26 19 21 65 28 65 9z m-534 -14 c11 -28 -6 -64 -56 -117
l-51 -53 3 74 c3 62 7 76 27 92 28 23 69 25 77 4z m629 -101 c-5 -34 -10 -43
-18 -35 -21 21 -52 11 -125 -39 -41 -28 -80 -50 -88 -50 -25 0 -38 44 -22 76
12 26 21 30 88 41 41 7 95 23 120 36 25 13 47 23 49 21 2 -2 0 -24 -4 -50z"/>
<path d="M3294 3291 c-41 -25 -71 -98 -89 -218 -21 -137 -30 -494 -17 -619 25
-221 91 -325 160 -251 38 41 43 79 31 247 -16 216 -7 441 22 550 14 56 22 117
23 178 1 87 -1 95 -23 113 -29 24 -67 24 -107 0z"/>
<path d="M3952 3195 c-39 -33 -72 -101 -72 -148 0 -34 2 -37 30 -37 20 0 43
12 71 37 66 60 88 123 53 157 -22 23 -48 20 -82 -9z"/>
<path d="M3647 3046 c-135 -48 -219 -185 -218 -356 0 -108 44 -186 118 -211
59 -19 152 11 204 65 13 14 27 26 30 26 3 0 9 -26 12 -57 7 -66 33 -108 68
-108 47 0 52 35 42 264 -8 183 -12 211 -32 249 -33 64 -88 120 -129 132 -46
12 -48 12 -95 -4z m118 -186 c8 -26 -42 -119 -72 -133 -31 -14 -53 -2 -53 28
0 77 106 165 125 105z"/>
</g>
</svg>
